<svg width="768" height="256" viewBox="0 0 768 256" fill="none" xmlns="http://www.w3.org/2000/svg">
	<path d="M384.9 90.8V104.5H356.3V119.3H377.7V132.6H356.3V161H339.2V90.8H384.9ZM410.988 87V161H393.888V87H410.988ZM478.48 105.2V161H461.38V153.4C459.646 155.867 457.28 157.867 454.28 159.4C451.346 160.867 448.08 161.6 444.48 161.6C440.213 161.6 436.446 160.667 433.18 158.8C429.913 156.867 427.38 154.1 425.58 150.5C423.78 146.9 422.88 142.667 422.88 137.8V105.2H439.88V135.5C439.88 139.233 440.846 142.133 442.78 144.2C444.713 146.267 447.313 147.3 450.58 147.3C453.913 147.3 456.546 146.267 458.48 144.2C460.413 142.133 461.38 139.233 461.38 135.5V105.2H478.48ZM518.763 119.4H509.562V161H492.463V119.4H486.263V105.2H492.463V103.6C492.463 96.7333 494.429 91.5333 498.363 88C502.296 84.4 508.063 82.6 515.663 82.6C516.929 82.6 517.863 82.6333 518.463 82.7V97.2C515.196 97 512.896 97.4666 511.563 98.6C510.229 99.7333 509.562 101.767 509.562 104.7V105.2H518.763V119.4ZM569.298 125C573.364 125.867 576.631 127.9 579.098 131.1C581.564 134.233 582.798 137.833 582.798 141.9C582.798 147.767 580.731 152.433 576.598 155.9C572.531 159.3 566.831 161 559.498 161H526.798V90.8H558.398C565.531 90.8 571.098 92.4333 575.098 95.7C579.164 98.9666 581.198 103.4 581.198 109C581.198 113.133 580.098 116.567 577.898 119.3C575.764 122.033 572.898 123.933 569.298 125ZM543.898 119.2H555.098C557.898 119.2 560.031 118.6 561.498 117.4C563.031 116.133 563.798 114.3 563.798 111.9C563.798 109.5 563.031 107.667 561.498 106.4C560.031 105.133 557.898 104.5 555.098 104.5H543.898V119.2ZM556.498 147.2C559.364 147.2 561.564 146.567 563.098 145.3C564.698 143.967 565.498 142.067 565.498 139.6C565.498 137.133 564.664 135.2 562.998 133.8C561.398 132.4 559.164 131.7 556.298 131.7H543.898V147.2H556.498ZM601.316 99.4C598.316 99.4 595.849 98.5333 593.916 96.8C592.049 95 591.116 92.8 591.116 90.2C591.116 87.5333 592.049 85.3333 593.916 83.6C595.849 81.8 598.316 80.9 601.316 80.9C604.249 80.9 606.649 81.8 608.516 83.6C610.449 85.3333 611.416 87.5333 611.416 90.2C611.416 92.8 610.449 95 608.516 96.8C606.649 98.5333 604.249 99.4 601.316 99.4ZM609.816 105.2V161H592.716V105.2H609.816ZM639.308 114.5C641.308 111.433 643.808 109.033 646.808 107.3C649.808 105.5 653.141 104.6 656.808 104.6V122.7H652.108C647.841 122.7 644.641 123.633 642.508 125.5C640.374 127.3 639.308 130.5 639.308 135.1V161H622.208V105.2H639.308V114.5ZM661.581 133C661.581 127.267 662.648 122.233 664.781 117.9C666.981 113.567 669.948 110.233 673.681 107.9C677.415 105.567 681.581 104.4 686.181 104.4C689.848 104.4 693.181 105.167 696.181 106.7C699.248 108.233 701.648 110.3 703.381 112.9V87H720.481V161H703.381V153C701.781 155.667 699.481 157.8 696.481 159.4C693.548 161 690.115 161.8 686.181 161.8C681.581 161.8 677.415 160.633 673.681 158.3C669.948 155.9 666.981 152.533 664.781 148.2C662.648 143.8 661.581 138.733 661.581 133ZM703.381 133.1C703.381 128.833 702.181 125.467 699.781 123C697.448 120.533 694.581 119.3 691.181 119.3C687.781 119.3 684.881 120.533 682.481 123C680.148 125.4 678.981 128.733 678.981 133C678.981 137.267 680.148 140.667 682.481 143.2C684.881 145.667 687.781 146.9 691.181 146.9C694.581 146.9 697.448 145.667 699.781 143.2C702.181 140.733 703.381 137.367 703.381 133.1Z" fill="white"/>
	<path d="M276.059 97.4757L220.171 91.3993L230.461 64.5947L276.059 97.4757Z" fill="#2583C8"/>
	<path d="M198.175 142.719L176.185 86.8943L232.01 64.9042L198.175 142.719Z" fill="#23A3FF"/>
	<path d="M65 31.7293L135.423 104.266L104 31.7293L65 31.7293Z" fill="#2583C8"/>
	<path d="M133.129 104.784L158.784 39.6551L93.6551 14L133.129 104.784Z" fill="#23A3FF"/>
	<path d="M158.346 39.7293L198.661 142.075L96.3151 182.39L158.346 39.7293Z" fill="#2583C8"/>
	<path d="M118.129 242.815L96.1389 180.99L151.964 159L118.129 242.815Z" fill="#23A3FF"/>
</svg>
