<svg width="256" height="256" viewBox="0 0 256 256" fill="none" xmlns="http://www.w3.org/2000/svg">
	<g clip-path="url(#clip0_0_1)">
		<path d="M234.258 -2.58579C235.039 -3.36684 236.306 -3.36684 237.087 -2.58579L251.936 12.2635C252.717 13.0445 252.717 14.3108 251.936 15.0919L162.595 104.433L145.036 121.992C144.255 122.773 142.989 122.773 142.208 121.992L127.359 107.142C126.578 106.361 126.578 105.095 127.359 104.314L234.258 -2.58579Z" fill="#DB31BF"/>
		<path d="M231 2C231 0.895434 231.895 0 233 0H254C255.105 0 256 0.895431 256 2V158.132C256 158.566 255.859 158.989 255.598 159.335L234.598 187.222C233.443 188.756 231 187.939 231 186.019V2Z" fill="#DB31BF"/>
		<path d="M157.87 161.251C158.631 162.052 158.597 163.318 157.796 164.078L142.563 178.534C141.762 179.294 140.496 179.261 139.736 178.46L3.84019 35.2556C2.54825 33.8942 3.67392 31.6635 5.53656 31.894L38.3393 35.9533C38.7993 36.0103 39.2253 36.2252 39.5444 36.5615L157.87 161.251Z" fill="#8F2D8F"/>
		<path d="M22 53C22 51.8954 22.8954 51 24 51H45C46.1046 51 47 51.8954 47 53V250.421C47 252.298 44.648 253.141 43.4555 251.692L22.4555 226.167C22.161 225.809 22 225.36 22 224.897V53Z" fill="#8F2D8F"/>
	</g>
	<defs>
		<clipPath id="clip0_0_1">
			<rect width="256" height="256" fill="white"/>
		</clipPath>
	</defs>
</svg>